ISO-10303-21;
HEADER;
/* Generated by software containing ST-Developer
 * from STEP Tools, Inc. (www.steptools.com) 
 */

FILE_DESCRIPTION(
/* description */ (''),
/* implementation_level */ '2;1');

FILE_NAME(
/* name */ '',
/* time_stamp */ '2025-07-26T20:21:03+08:00',
/* author */ (''),
/* organization */ (''),
/* preprocessor_version */ 'ST-DEVELOPER v20.1',
/* originating_system */ 'Autodesk Translation Framework v14.10.0.0',
/* authorisation */ '');

FILE_SCHEMA (('AUTOMOTIVE_DESIGN { 1 0 10303 214 3 1 1 }'));
ENDSEC;

DATA;
#10=MECHANICAL_DESIGN_GEOMETRIC_PRESENTATION_REPRESENTATION('',(#13),#555);
#11=SHAPE_REPRESENTATION_RELATIONSHIP('SRR','None',#562,#12);
#12=ADVANCED_BREP_SHAPE_REPRESENTATION('',(#14),#554);
#13=STYLED_ITEM('',(#571),#14);
#14=MANIFOLD_SOLID_BREP('\X2\5E95677F\X0\ M3',#331);
#15=FACE_BOUND('',#69,.T.);
#16=FACE_BOUND('',#70,.T.);
#17=FACE_BOUND('',#71,.T.);
#18=FACE_BOUND('',#72,.T.);
#19=FACE_BOUND('',#73,.T.);
#20=FACE_BOUND('',#74,.T.);
#21=FACE_BOUND('',#75,.T.);
#22=FACE_BOUND('',#77,.T.);
#23=FACE_BOUND('',#78,.T.);
#24=FACE_BOUND('',#79,.T.);
#25=FACE_BOUND('',#80,.T.);
#26=FACE_BOUND('',#81,.T.);
#27=FACE_BOUND('',#82,.T.);
#28=FACE_BOUND('',#83,.T.);
#29=PLANE('',#366);
#30=PLANE('',#367);
#31=PLANE('',#368);
#32=PLANE('',#369);
#33=PLANE('',#370);
#34=PLANE('',#371);
#35=PLANE('',#372);
#36=PLANE('',#373);
#37=PLANE('',#374);
#38=FACE_OUTER_BOUND('',#54,.T.);
#39=FACE_OUTER_BOUND('',#55,.T.);
#40=FACE_OUTER_BOUND('',#56,.T.);
#41=FACE_OUTER_BOUND('',#57,.T.);
#42=FACE_OUTER_BOUND('',#58,.T.);
#43=FACE_OUTER_BOUND('',#59,.T.);
#44=FACE_OUTER_BOUND('',#60,.T.);
#45=FACE_OUTER_BOUND('',#61,.T.);
#46=FACE_OUTER_BOUND('',#62,.T.);
#47=FACE_OUTER_BOUND('',#63,.T.);
#48=FACE_OUTER_BOUND('',#64,.T.);
#49=FACE_OUTER_BOUND('',#65,.T.);
#50=FACE_OUTER_BOUND('',#66,.T.);
#51=FACE_OUTER_BOUND('',#67,.T.);
#52=FACE_OUTER_BOUND('',#68,.T.);
#53=FACE_OUTER_BOUND('',#76,.T.);
#54=EDGE_LOOP('',(#224,#225,#226,#227));
#55=EDGE_LOOP('',(#228,#229,#230,#231));
#56=EDGE_LOOP('',(#232,#233,#234,#235));
#57=EDGE_LOOP('',(#236,#237,#238,#239));
#58=EDGE_LOOP('',(#240,#241,#242,#243));
#59=EDGE_LOOP('',(#244,#245,#246,#247));
#60=EDGE_LOOP('',(#248,#249,#250,#251));
#61=EDGE_LOOP('',(#252,#253,#254,#255));
#62=EDGE_LOOP('',(#256,#257,#258,#259));
#63=EDGE_LOOP('',(#260,#261,#262,#263));
#64=EDGE_LOOP('',(#264,#265,#266,#267));
#65=EDGE_LOOP('',(#268,#269,#270,#271));
#66=EDGE_LOOP('',(#272,#273,#274,#275));
#67=EDGE_LOOP('',(#276,#277,#278,#279));
#68=EDGE_LOOP('',(#280,#281,#282,#283,#284,#285,#286));
#69=EDGE_LOOP('',(#287));
#70=EDGE_LOOP('',(#288));
#71=EDGE_LOOP('',(#289));
#72=EDGE_LOOP('',(#290));
#73=EDGE_LOOP('',(#291));
#74=EDGE_LOOP('',(#292));
#75=EDGE_LOOP('',(#293));
#76=EDGE_LOOP('',(#294,#295,#296,#297,#298,#299,#300));
#77=EDGE_LOOP('',(#301));
#78=EDGE_LOOP('',(#302));
#79=EDGE_LOOP('',(#303));
#80=EDGE_LOOP('',(#304));
#81=EDGE_LOOP('',(#305));
#82=EDGE_LOOP('',(#306));
#83=EDGE_LOOP('',(#307));
#84=LINE('',#470,#112);
#85=LINE('',#476,#113);
#86=LINE('',#482,#114);
#87=LINE('',#488,#115);
#88=LINE('',#494,#116);
#89=LINE('',#500,#117);
#90=LINE('',#506,#118);
#91=LINE('',#511,#119);
#92=LINE('',#513,#120);
#93=LINE('',#515,#121);
#94=LINE('',#516,#122);
#95=LINE('',#519,#123);
#96=LINE('',#521,#124);
#97=LINE('',#522,#125);
#98=LINE('',#525,#126);
#99=LINE('',#527,#127);
#100=LINE('',#528,#128);
#101=LINE('',#531,#129);
#102=LINE('',#533,#130);
#103=LINE('',#534,#131);
#104=LINE('',#537,#132);
#105=LINE('',#539,#133);
#106=LINE('',#540,#134);
#107=LINE('',#543,#135);
#108=LINE('',#545,#136);
#109=LINE('',#546,#137);
#110=LINE('',#548,#138);
#111=LINE('',#549,#139);
#112=VECTOR('',#381,1.75);
#113=VECTOR('',#388,1.75000000000001);
#114=VECTOR('',#395,1.75);
#115=VECTOR('',#402,1.75);
#116=VECTOR('',#409,1.75000000000001);
#117=VECTOR('',#416,1.75);
#118=VECTOR('',#423,1.75);
#119=VECTOR('',#428,10.);
#120=VECTOR('',#429,10.);
#121=VECTOR('',#430,10.);
#122=VECTOR('',#431,10.);
#123=VECTOR('',#434,10.);
#124=VECTOR('',#435,10.);
#125=VECTOR('',#436,10.);
#126=VECTOR('',#439,10.);
#127=VECTOR('',#440,10.);
#128=VECTOR('',#441,10.);
#129=VECTOR('',#444,10.);
#130=VECTOR('',#445,10.);
#131=VECTOR('',#446,10.);
#132=VECTOR('',#449,10.);
#133=VECTOR('',#450,10.);
#134=VECTOR('',#451,10.);
#135=VECTOR('',#454,10.);
#136=VECTOR('',#455,10.);
#137=VECTOR('',#456,10.);
#138=VECTOR('',#459,10.);
#139=VECTOR('',#460,10.);
#140=CIRCLE('',#346,1.465);
#141=CIRCLE('',#347,1.465);
#142=CIRCLE('',#349,1.2645);
#143=CIRCLE('',#350,1.2645);
#144=CIRCLE('',#352,1.2645);
#145=CIRCLE('',#353,1.2645);
#146=CIRCLE('',#355,1.2645);
#147=CIRCLE('',#356,1.2645);
#148=CIRCLE('',#358,1.2645);
#149=CIRCLE('',#359,1.2645);
#150=CIRCLE('',#361,1.2645);
#151=CIRCLE('',#362,1.2645);
#152=CIRCLE('',#364,1.2645);
#153=CIRCLE('',#365,1.2645);
#154=VERTEX_POINT('',#467);
#155=VERTEX_POINT('',#469);
#156=VERTEX_POINT('',#473);
#157=VERTEX_POINT('',#475);
#158=VERTEX_POINT('',#479);
#159=VERTEX_POINT('',#481);
#160=VERTEX_POINT('',#485);
#161=VERTEX_POINT('',#487);
#162=VERTEX_POINT('',#491);
#163=VERTEX_POINT('',#493);
#164=VERTEX_POINT('',#497);
#165=VERTEX_POINT('',#499);
#166=VERTEX_POINT('',#503);
#167=VERTEX_POINT('',#505);
#168=VERTEX_POINT('',#509);
#169=VERTEX_POINT('',#510);
#170=VERTEX_POINT('',#512);
#171=VERTEX_POINT('',#514);
#172=VERTEX_POINT('',#518);
#173=VERTEX_POINT('',#520);
#174=VERTEX_POINT('',#524);
#175=VERTEX_POINT('',#526);
#176=VERTEX_POINT('',#530);
#177=VERTEX_POINT('',#532);
#178=VERTEX_POINT('',#536);
#179=VERTEX_POINT('',#538);
#180=VERTEX_POINT('',#542);
#181=VERTEX_POINT('',#544);
#182=EDGE_CURVE('',#154,#154,#140,.F.);
#183=EDGE_CURVE('',#154,#155,#84,.T.);
#184=EDGE_CURVE('',#155,#155,#141,.F.);
#185=EDGE_CURVE('',#156,#156,#142,.F.);
#186=EDGE_CURVE('',#156,#157,#85,.T.);
#187=EDGE_CURVE('',#157,#157,#143,.F.);
#188=EDGE_CURVE('',#158,#158,#144,.F.);
#189=EDGE_CURVE('',#158,#159,#86,.T.);
#190=EDGE_CURVE('',#159,#159,#145,.F.);
#191=EDGE_CURVE('',#160,#160,#146,.F.);
#192=EDGE_CURVE('',#160,#161,#87,.T.);
#193=EDGE_CURVE('',#161,#161,#147,.F.);
#194=EDGE_CURVE('',#162,#162,#148,.F.);
#195=EDGE_CURVE('',#162,#163,#88,.T.);
#196=EDGE_CURVE('',#163,#163,#149,.F.);
#197=EDGE_CURVE('',#164,#164,#150,.F.);
#198=EDGE_CURVE('',#164,#165,#89,.T.);
#199=EDGE_CURVE('',#165,#165,#151,.F.);
#200=EDGE_CURVE('',#166,#166,#152,.F.);
#201=EDGE_CURVE('',#166,#167,#90,.T.);
#202=EDGE_CURVE('',#167,#167,#153,.F.);
#203=EDGE_CURVE('',#168,#169,#91,.T.);
#204=EDGE_CURVE('',#168,#170,#92,.T.);
#205=EDGE_CURVE('',#171,#170,#93,.T.);
#206=EDGE_CURVE('',#169,#171,#94,.T.);
#207=EDGE_CURVE('',#169,#172,#95,.T.);
#208=EDGE_CURVE('',#173,#171,#96,.T.);
#209=EDGE_CURVE('',#172,#173,#97,.T.);
#210=EDGE_CURVE('',#172,#174,#98,.T.);
#211=EDGE_CURVE('',#175,#173,#99,.T.);
#212=EDGE_CURVE('',#174,#175,#100,.T.);
#213=EDGE_CURVE('',#176,#174,#101,.T.);
#214=EDGE_CURVE('',#177,#175,#102,.T.);
#215=EDGE_CURVE('',#176,#177,#103,.T.);
#216=EDGE_CURVE('',#178,#176,#104,.T.);
#217=EDGE_CURVE('',#179,#177,#105,.T.);
#218=EDGE_CURVE('',#178,#179,#106,.T.);
#219=EDGE_CURVE('',#180,#178,#107,.T.);
#220=EDGE_CURVE('',#181,#179,#108,.T.);
#221=EDGE_CURVE('',#180,#181,#109,.T.);
#222=EDGE_CURVE('',#180,#168,#110,.T.);
#223=EDGE_CURVE('',#170,#181,#111,.T.);
#224=ORIENTED_EDGE('',*,*,#182,.F.);
#225=ORIENTED_EDGE('',*,*,#183,.T.);
#226=ORIENTED_EDGE('',*,*,#184,.T.);
#227=ORIENTED_EDGE('',*,*,#183,.F.);
#228=ORIENTED_EDGE('',*,*,#185,.F.);
#229=ORIENTED_EDGE('',*,*,#186,.T.);
#230=ORIENTED_EDGE('',*,*,#187,.T.);
#231=ORIENTED_EDGE('',*,*,#186,.F.);
#232=ORIENTED_EDGE('',*,*,#188,.F.);
#233=ORIENTED_EDGE('',*,*,#189,.T.);
#234=ORIENTED_EDGE('',*,*,#190,.T.);
#235=ORIENTED_EDGE('',*,*,#189,.F.);
#236=ORIENTED_EDGE('',*,*,#191,.F.);
#237=ORIENTED_EDGE('',*,*,#192,.T.);
#238=ORIENTED_EDGE('',*,*,#193,.T.);
#239=ORIENTED_EDGE('',*,*,#192,.F.);
#240=ORIENTED_EDGE('',*,*,#194,.F.);
#241=ORIENTED_EDGE('',*,*,#195,.T.);
#242=ORIENTED_EDGE('',*,*,#196,.T.);
#243=ORIENTED_EDGE('',*,*,#195,.F.);
#244=ORIENTED_EDGE('',*,*,#197,.F.);
#245=ORIENTED_EDGE('',*,*,#198,.T.);
#246=ORIENTED_EDGE('',*,*,#199,.T.);
#247=ORIENTED_EDGE('',*,*,#198,.F.);
#248=ORIENTED_EDGE('',*,*,#200,.F.);
#249=ORIENTED_EDGE('',*,*,#201,.T.);
#250=ORIENTED_EDGE('',*,*,#202,.T.);
#251=ORIENTED_EDGE('',*,*,#201,.F.);
#252=ORIENTED_EDGE('',*,*,#203,.F.);
#253=ORIENTED_EDGE('',*,*,#204,.T.);
#254=ORIENTED_EDGE('',*,*,#205,.F.);
#255=ORIENTED_EDGE('',*,*,#206,.F.);
#256=ORIENTED_EDGE('',*,*,#207,.F.);
#257=ORIENTED_EDGE('',*,*,#206,.T.);
#258=ORIENTED_EDGE('',*,*,#208,.F.);
#259=ORIENTED_EDGE('',*,*,#209,.F.);
#260=ORIENTED_EDGE('',*,*,#210,.F.);
#261=ORIENTED_EDGE('',*,*,#209,.T.);
#262=ORIENTED_EDGE('',*,*,#211,.F.);
#263=ORIENTED_EDGE('',*,*,#212,.F.);
#264=ORIENTED_EDGE('',*,*,#213,.T.);
#265=ORIENTED_EDGE('',*,*,#212,.T.);
#266=ORIENTED_EDGE('',*,*,#214,.F.);
#267=ORIENTED_EDGE('',*,*,#215,.F.);
#268=ORIENTED_EDGE('',*,*,#216,.T.);
#269=ORIENTED_EDGE('',*,*,#215,.T.);
#270=ORIENTED_EDGE('',*,*,#217,.F.);
#271=ORIENTED_EDGE('',*,*,#218,.F.);
#272=ORIENTED_EDGE('',*,*,#219,.T.);
#273=ORIENTED_EDGE('',*,*,#218,.T.);
#274=ORIENTED_EDGE('',*,*,#220,.F.);
#275=ORIENTED_EDGE('',*,*,#221,.F.);
#276=ORIENTED_EDGE('',*,*,#222,.F.);
#277=ORIENTED_EDGE('',*,*,#221,.T.);
#278=ORIENTED_EDGE('',*,*,#223,.F.);
#279=ORIENTED_EDGE('',*,*,#204,.F.);
#280=ORIENTED_EDGE('',*,*,#223,.T.);
#281=ORIENTED_EDGE('',*,*,#220,.T.);
#282=ORIENTED_EDGE('',*,*,#217,.T.);
#283=ORIENTED_EDGE('',*,*,#214,.T.);
#284=ORIENTED_EDGE('',*,*,#211,.T.);
#285=ORIENTED_EDGE('',*,*,#208,.T.);
#286=ORIENTED_EDGE('',*,*,#205,.T.);
#287=ORIENTED_EDGE('',*,*,#200,.T.);
#288=ORIENTED_EDGE('',*,*,#197,.T.);
#289=ORIENTED_EDGE('',*,*,#194,.T.);
#290=ORIENTED_EDGE('',*,*,#191,.T.);
#291=ORIENTED_EDGE('',*,*,#188,.T.);
#292=ORIENTED_EDGE('',*,*,#185,.T.);
#293=ORIENTED_EDGE('',*,*,#182,.T.);
#294=ORIENTED_EDGE('',*,*,#222,.T.);
#295=ORIENTED_EDGE('',*,*,#203,.T.);
#296=ORIENTED_EDGE('',*,*,#207,.T.);
#297=ORIENTED_EDGE('',*,*,#210,.T.);
#298=ORIENTED_EDGE('',*,*,#213,.F.);
#299=ORIENTED_EDGE('',*,*,#216,.F.);
#300=ORIENTED_EDGE('',*,*,#219,.F.);
#301=ORIENTED_EDGE('',*,*,#202,.F.);
#302=ORIENTED_EDGE('',*,*,#199,.F.);
#303=ORIENTED_EDGE('',*,*,#196,.F.);
#304=ORIENTED_EDGE('',*,*,#193,.F.);
#305=ORIENTED_EDGE('',*,*,#190,.F.);
#306=ORIENTED_EDGE('',*,*,#187,.F.);
#307=ORIENTED_EDGE('',*,*,#184,.F.);
#308=CYLINDRICAL_SURFACE('',#345,1.465);
#309=CYLINDRICAL_SURFACE('',#348,1.2645);
#310=CYLINDRICAL_SURFACE('',#351,1.2645);
#311=CYLINDRICAL_SURFACE('',#354,1.2645);
#312=CYLINDRICAL_SURFACE('',#357,1.2645);
#313=CYLINDRICAL_SURFACE('',#360,1.2645);
#314=CYLINDRICAL_SURFACE('',#363,1.2645);
#315=ADVANCED_FACE('',(#38),#308,.F.);
#316=ADVANCED_FACE('',(#39),#309,.F.);
#317=ADVANCED_FACE('',(#40),#310,.F.);
#318=ADVANCED_FACE('',(#41),#311,.F.);
#319=ADVANCED_FACE('',(#42),#312,.F.);
#320=ADVANCED_FACE('',(#43),#313,.F.);
#321=ADVANCED_FACE('',(#44),#314,.F.);
#322=ADVANCED_FACE('',(#45),#29,.T.);
#323=ADVANCED_FACE('',(#46),#30,.T.);
#324=ADVANCED_FACE('',(#47),#31,.T.);
#325=ADVANCED_FACE('',(#48),#32,.T.);
#326=ADVANCED_FACE('',(#49),#33,.T.);
#327=ADVANCED_FACE('',(#50),#34,.T.);
#328=ADVANCED_FACE('',(#51),#35,.T.);
#329=ADVANCED_FACE('',(#52,#15,#16,#17,#18,#19,#20,#21),#36,.T.);
#330=ADVANCED_FACE('',(#53,#22,#23,#24,#25,#26,#27,#28),#37,.F.);
#331=CLOSED_SHELL('',(#315,#316,#317,#318,#319,#320,#321,#322,#323,#324,
#325,#326,#327,#328,#329,#330));
#332=DERIVED_UNIT_ELEMENT(#334,1.);
#333=DERIVED_UNIT_ELEMENT(#557,-3.);
#334=(
MASS_UNIT()
NAMED_UNIT(*)
SI_UNIT(.KILO.,.GRAM.)
);
#335=DERIVED_UNIT((#332,#333));
#336=MEASURE_REPRESENTATION_ITEM('density measure',
POSITIVE_RATIO_MEASURE(7850.),#335);
#337=PROPERTY_DEFINITION_REPRESENTATION(#342,#339);
#338=PROPERTY_DEFINITION_REPRESENTATION(#343,#340);
#339=REPRESENTATION('material name',(#341),#554);
#340=REPRESENTATION('density',(#336),#554);
#341=DESCRIPTIVE_REPRESENTATION_ITEM('\X2\94A2\X0\','\X2\94A2\X0\');
#342=PROPERTY_DEFINITION('material property','material name',#564);
#343=PROPERTY_DEFINITION('material property','density of part',#564);
#344=AXIS2_PLACEMENT_3D('',#465,#375,#376);
#345=AXIS2_PLACEMENT_3D('',#466,#377,#378);
#346=AXIS2_PLACEMENT_3D('',#468,#379,#380);
#347=AXIS2_PLACEMENT_3D('',#471,#382,#383);
#348=AXIS2_PLACEMENT_3D('',#472,#384,#385);
#349=AXIS2_PLACEMENT_3D('',#474,#386,#387);
#350=AXIS2_PLACEMENT_3D('',#477,#389,#390);
#351=AXIS2_PLACEMENT_3D('',#478,#391,#392);
#352=AXIS2_PLACEMENT_3D('',#480,#393,#394);
#353=AXIS2_PLACEMENT_3D('',#483,#396,#397);
#354=AXIS2_PLACEMENT_3D('',#484,#398,#399);
#355=AXIS2_PLACEMENT_3D('',#486,#400,#401);
#356=AXIS2_PLACEMENT_3D('',#489,#403,#404);
#357=AXIS2_PLACEMENT_3D('',#490,#405,#406);
#358=AXIS2_PLACEMENT_3D('',#492,#407,#408);
#359=AXIS2_PLACEMENT_3D('',#495,#410,#411);
#360=AXIS2_PLACEMENT_3D('',#496,#412,#413);
#361=AXIS2_PLACEMENT_3D('',#498,#414,#415);
#362=AXIS2_PLACEMENT_3D('',#501,#417,#418);
#363=AXIS2_PLACEMENT_3D('',#502,#419,#420);
#364=AXIS2_PLACEMENT_3D('',#504,#421,#422);
#365=AXIS2_PLACEMENT_3D('',#507,#424,#425);
#366=AXIS2_PLACEMENT_3D('',#508,#426,#427);
#367=AXIS2_PLACEMENT_3D('',#517,#432,#433);
#368=AXIS2_PLACEMENT_3D('',#523,#437,#438);
#369=AXIS2_PLACEMENT_3D('',#529,#442,#443);
#370=AXIS2_PLACEMENT_3D('',#535,#447,#448);
#371=AXIS2_PLACEMENT_3D('',#541,#452,#453);
#372=AXIS2_PLACEMENT_3D('',#547,#457,#458);
#373=AXIS2_PLACEMENT_3D('',#550,#461,#462);
#374=AXIS2_PLACEMENT_3D('',#551,#463,#464);
#375=DIRECTION('axis',(0.,0.,1.));
#376=DIRECTION('refdir',(1.,0.,0.));
#377=DIRECTION('center_axis',(0.,1.,0.));
#378=DIRECTION('ref_axis',(-1.,0.,0.));
#379=DIRECTION('center_axis',(0.,1.,0.));
#380=DIRECTION('ref_axis',(-1.,0.,0.));
#381=DIRECTION('',(0.,-1.,0.));
#382=DIRECTION('center_axis',(0.,1.,0.));
#383=DIRECTION('ref_axis',(-1.,0.,0.));
#384=DIRECTION('center_axis',(0.,1.,0.));
#385=DIRECTION('ref_axis',(-1.,0.,0.));
#386=DIRECTION('center_axis',(0.,1.,0.));
#387=DIRECTION('ref_axis',(-1.,0.,0.));
#388=DIRECTION('',(0.,-1.,0.));
#389=DIRECTION('center_axis',(0.,1.,0.));
#390=DIRECTION('ref_axis',(-1.,0.,0.));
#391=DIRECTION('center_axis',(0.,1.,0.));
#392=DIRECTION('ref_axis',(-1.,0.,0.));
#393=DIRECTION('center_axis',(0.,1.,0.));
#394=DIRECTION('ref_axis',(-1.,0.,0.));
#395=DIRECTION('',(0.,-1.,0.));
#396=DIRECTION('center_axis',(0.,1.,0.));
#397=DIRECTION('ref_axis',(-1.,0.,0.));
#398=DIRECTION('center_axis',(0.,1.,0.));
#399=DIRECTION('ref_axis',(-1.,0.,0.));
#400=DIRECTION('center_axis',(0.,1.,0.));
#401=DIRECTION('ref_axis',(-1.,0.,0.));
#402=DIRECTION('',(0.,-1.,0.));
#403=DIRECTION('center_axis',(0.,1.,0.));
#404=DIRECTION('ref_axis',(-1.,0.,0.));
#405=DIRECTION('center_axis',(0.,1.,0.));
#406=DIRECTION('ref_axis',(-1.,0.,0.));
#407=DIRECTION('center_axis',(0.,1.,0.));
#408=DIRECTION('ref_axis',(-1.,0.,0.));
#409=DIRECTION('',(0.,-1.,0.));
#410=DIRECTION('center_axis',(0.,1.,0.));
#411=DIRECTION('ref_axis',(-1.,0.,0.));
#412=DIRECTION('center_axis',(0.,1.,0.));
#413=DIRECTION('ref_axis',(-1.,0.,0.));
#414=DIRECTION('center_axis',(0.,1.,0.));
#415=DIRECTION('ref_axis',(-1.,0.,0.));
#416=DIRECTION('',(0.,-1.,0.));
#417=DIRECTION('center_axis',(0.,1.,0.));
#418=DIRECTION('ref_axis',(-1.,0.,0.));
#419=DIRECTION('center_axis',(0.,1.,0.));
#420=DIRECTION('ref_axis',(-1.,0.,0.));
#421=DIRECTION('center_axis',(0.,1.,0.));
#422=DIRECTION('ref_axis',(-1.,0.,0.));
#423=DIRECTION('',(0.,-1.,0.));
#424=DIRECTION('center_axis',(0.,1.,0.));
#425=DIRECTION('ref_axis',(-1.,0.,0.));
#426=DIRECTION('center_axis',(1.,0.,0.));
#427=DIRECTION('ref_axis',(0.,0.,-1.));
#428=DIRECTION('',(0.,0.,1.));
#429=DIRECTION('',(0.,1.,0.));
#430=DIRECTION('',(0.,0.,-1.));
#431=DIRECTION('',(0.,1.,0.));
#432=DIRECTION('center_axis',(0.789719220904635,0.,0.613468460586016));
#433=DIRECTION('ref_axis',(0.613468460586016,0.,-0.789719220904635));
#434=DIRECTION('',(-0.613468460586016,0.,0.789719220904635));
#435=DIRECTION('',(0.613468460586016,0.,-0.789719220904635));
#436=DIRECTION('',(0.,1.,0.));
#437=DIRECTION('center_axis',(0.,0.,1.));
#438=DIRECTION('ref_axis',(1.,0.,0.));
#439=DIRECTION('',(-1.,0.,0.));
#440=DIRECTION('',(1.,0.,0.));
#441=DIRECTION('',(0.,1.,0.));
#442=DIRECTION('center_axis',(-0.827206886789335,0.,0.561897469693802));
#443=DIRECTION('ref_axis',(0.561897469693802,0.,0.827206886789335));
#444=DIRECTION('',(0.561897469693802,0.,0.827206886789335));
#445=DIRECTION('',(0.561897469693802,0.,0.827206886789335));
#446=DIRECTION('',(0.,1.,0.));
#447=DIRECTION('center_axis',(-1.,0.,0.));
#448=DIRECTION('ref_axis',(0.,0.,1.));
#449=DIRECTION('',(0.,0.,1.));
#450=DIRECTION('',(0.,0.,1.));
#451=DIRECTION('',(0.,1.,0.));
#452=DIRECTION('center_axis',(-0.62455315665959,0.,-0.780982301020031));
#453=DIRECTION('ref_axis',(-0.780982301020031,0.,0.62455315665959));
#454=DIRECTION('',(-0.780982301020031,0.,0.62455315665959));
#455=DIRECTION('',(-0.780982301020031,0.,0.62455315665959));
#456=DIRECTION('',(0.,1.,0.));
#457=DIRECTION('center_axis',(0.588586683711562,0.,-0.808434113430047));
#458=DIRECTION('ref_axis',(-0.808434113430047,0.,-0.588586683711562));
#459=DIRECTION('',(0.808434113430047,0.,0.588586683711562));
#460=DIRECTION('',(-0.808434113430047,0.,-0.588586683711562));
#461=DIRECTION('center_axis',(0.,1.,0.));
#462=DIRECTION('ref_axis',(-1.,0.,0.));
#463=DIRECTION('center_axis',(0.,1.,0.));
#464=DIRECTION('ref_axis',(-1.,0.,0.));
#465=CARTESIAN_POINT('',(0.,0.,0.));
#466=CARTESIAN_POINT('Origin',(44.1,104.,-26.89));
#467=CARTESIAN_POINT('',(45.565,108.,-26.89));
#468=CARTESIAN_POINT('Origin',(44.1,108.,-26.89));
#469=CARTESIAN_POINT('',(45.565,104.,-26.89));
#470=CARTESIAN_POINT('',(45.565,104.,-26.89));
#471=CARTESIAN_POINT('Origin',(44.1,104.,-26.89));
#472=CARTESIAN_POINT('Origin',(48.,104.,6.86));
#473=CARTESIAN_POINT('',(49.2645,108.,6.86));
#474=CARTESIAN_POINT('Origin',(48.,108.,6.86));
#475=CARTESIAN_POINT('',(49.2645,104.,6.86));
#476=CARTESIAN_POINT('',(49.2645,104.,6.86));
#477=CARTESIAN_POINT('Origin',(48.,104.,6.86));
#478=CARTESIAN_POINT('Origin',(15.2500000000009,104.,49.9000000000009));
#479=CARTESIAN_POINT('',(16.5145000000009,108.,49.9000000000009));
#480=CARTESIAN_POINT('Origin',(15.2500000000009,108.,49.9000000000009));
#481=CARTESIAN_POINT('',(16.5145000000009,104.,49.9000000000009));
#482=CARTESIAN_POINT('',(16.5145000000009,104.,49.9000000000009));
#483=CARTESIAN_POINT('Origin',(15.2500000000009,104.,49.9000000000009));
#484=CARTESIAN_POINT('Origin',(-15.2499999999991,104.,49.8999999999992));
#485=CARTESIAN_POINT('',(-13.9854999999991,108.,49.8999999999992));
#486=CARTESIAN_POINT('Origin',(-15.2499999999991,108.,49.8999999999992));
#487=CARTESIAN_POINT('',(-13.9854999999991,104.,49.8999999999992));
#488=CARTESIAN_POINT('',(-13.9854999999991,104.,49.8999999999992));
#489=CARTESIAN_POINT('Origin',(-15.2499999999991,104.,49.8999999999992));
#490=CARTESIAN_POINT('Origin',(-44.,104.,6.86));
#491=CARTESIAN_POINT('',(-42.7355,108.,6.86));
#492=CARTESIAN_POINT('Origin',(-44.,108.,6.86));
#493=CARTESIAN_POINT('',(-42.7355,104.,6.86));
#494=CARTESIAN_POINT('',(-42.7355,104.,6.86));
#495=CARTESIAN_POINT('Origin',(-44.,104.,6.86));
#496=CARTESIAN_POINT('Origin',(2.22044604925031E-14,104.,-62.4104496346694));
#497=CARTESIAN_POINT('',(1.26450000000002,108.,-62.4104496346694));
#498=CARTESIAN_POINT('Origin',(2.22044604925031E-14,108.,-62.4104496346694));
#499=CARTESIAN_POINT('',(1.26450000000002,104.,-62.4104496346694));
#500=CARTESIAN_POINT('',(1.26450000000002,104.,-62.4104496346694));
#501=CARTESIAN_POINT('Origin',(2.22044604925031E-14,104.,-62.4104496346694));
#502=CARTESIAN_POINT('Origin',(-37.9298036219673,104.,-20.552893434572));
#503=CARTESIAN_POINT('',(-36.6653036219673,108.,-20.552893434572));
#504=CARTESIAN_POINT('Origin',(-37.9298036219673,108.,-20.552893434572));
#505=CARTESIAN_POINT('',(-36.6653036219673,104.,-20.552893434572));
#506=CARTESIAN_POINT('',(-36.6653036219673,104.,-20.552893434572));
#507=CARTESIAN_POINT('Origin',(-37.9298036219673,104.,-20.552893434572));
#508=CARTESIAN_POINT('Origin',(52.3447521247648,104.,6.92602318190271));
#509=CARTESIAN_POINT('',(52.3447521247648,104.,-26.89));
#510=CARTESIAN_POINT('',(52.3447521247648,104.,6.92602318190271));
#511=CARTESIAN_POINT('',(52.3447521247648,104.,-26.89));
#512=CARTESIAN_POINT('',(52.3447521247648,108.,-26.89));
#513=CARTESIAN_POINT('',(52.3447521247648,104.,-26.89));
#514=CARTESIAN_POINT('',(52.3447521247648,108.,6.92602318190271));
#515=CARTESIAN_POINT('',(52.3447521247648,108.,-26.89));
#516=CARTESIAN_POINT('',(52.3447521247648,104.,6.92602318190271));
#517=CARTESIAN_POINT('Origin',(15.,104.,55.));
#518=CARTESIAN_POINT('',(15.,104.,55.));
#519=CARTESIAN_POINT('',(52.3447521247648,104.,6.92602318190271));
#520=CARTESIAN_POINT('',(15.,108.,55.));
#521=CARTESIAN_POINT('',(52.3447521247648,108.,6.92602318190271));
#522=CARTESIAN_POINT('',(15.,104.,55.));
#523=CARTESIAN_POINT('Origin',(-15.,104.,55.));
#524=CARTESIAN_POINT('',(-15.,104.,55.));
#525=CARTESIAN_POINT('',(15.,104.,55.));
#526=CARTESIAN_POINT('',(-15.,108.,55.));
#527=CARTESIAN_POINT('',(15.,108.,55.));
#528=CARTESIAN_POINT('',(-15.,104.,55.));
#529=CARTESIAN_POINT('Origin',(-47.6552478752352,104.,6.92602318190271));
#530=CARTESIAN_POINT('',(-47.6552478752352,104.,6.92602318190271));
#531=CARTESIAN_POINT('',(-47.6552478752352,104.,6.92602318190271));
#532=CARTESIAN_POINT('',(-47.6552478752352,108.,6.92602318190271));
#533=CARTESIAN_POINT('',(-47.6552478752352,108.,6.92602318190271));
#534=CARTESIAN_POINT('',(-47.6552478752352,104.,6.92602318190271));
#535=CARTESIAN_POINT('Origin',(-47.6552478752352,104.,-26.89));
#536=CARTESIAN_POINT('',(-47.6552478752352,104.,-26.89));
#537=CARTESIAN_POINT('',(-47.6552478752352,104.,-26.89));
#538=CARTESIAN_POINT('',(-47.6552478752352,108.,-26.89));
#539=CARTESIAN_POINT('',(-47.6552478752352,108.,-26.89));
#540=CARTESIAN_POINT('',(-47.6552478752352,104.,-26.89));
#541=CARTESIAN_POINT('Origin',(0.,104.,-65.));
#542=CARTESIAN_POINT('',(0.,104.,-65.));
#543=CARTESIAN_POINT('',(0.,104.,-65.));
#544=CARTESIAN_POINT('',(0.,108.,-65.));
#545=CARTESIAN_POINT('',(0.,108.,-65.));
#546=CARTESIAN_POINT('',(0.,104.,-65.));
#547=CARTESIAN_POINT('Origin',(52.3447521247648,104.,-26.89));
#548=CARTESIAN_POINT('',(0.,104.,-65.));
#549=CARTESIAN_POINT('',(0.,108.,-65.));
#550=CARTESIAN_POINT('Origin',(2.34475212476481,108.,-5.));
#551=CARTESIAN_POINT('Origin',(2.34475212476481,104.,-5.));
#552=UNCERTAINTY_MEASURE_WITH_UNIT(LENGTH_MEASURE(0.01),#556,
'DISTANCE_ACCURACY_VALUE',
'Maximum model space distance between geometric entities at asserted c
onnectivities');
#553=UNCERTAINTY_MEASURE_WITH_UNIT(LENGTH_MEASURE(0.01),#556,
'DISTANCE_ACCURACY_VALUE',
'Maximum model space distance between geometric entities at asserted c
onnectivities');
#554=(
GEOMETRIC_REPRESENTATION_CONTEXT(3)
GLOBAL_UNCERTAINTY_ASSIGNED_CONTEXT((#552))
GLOBAL_UNIT_ASSIGNED_CONTEXT((#556,#558,#559))
REPRESENTATION_CONTEXT('','3D')
);
#555=(
GEOMETRIC_REPRESENTATION_CONTEXT(3)
GLOBAL_UNCERTAINTY_ASSIGNED_CONTEXT((#553))
GLOBAL_UNIT_ASSIGNED_CONTEXT((#556,#558,#559))
REPRESENTATION_CONTEXT('','3D')
);
#556=(
LENGTH_UNIT()
NAMED_UNIT(*)
SI_UNIT(.MILLI.,.METRE.)
);
#557=(
LENGTH_UNIT()
NAMED_UNIT(*)
SI_UNIT($,.METRE.)
);
#558=(
NAMED_UNIT(*)
PLANE_ANGLE_UNIT()
SI_UNIT($,.RADIAN.)
);
#559=(
NAMED_UNIT(*)
SI_UNIT($,.STERADIAN.)
SOLID_ANGLE_UNIT()
);
#560=SHAPE_DEFINITION_REPRESENTATION(#561,#562);
#561=PRODUCT_DEFINITION_SHAPE('',$,#564);
#562=SHAPE_REPRESENTATION('',(#344),#554);
#563=PRODUCT_DEFINITION_CONTEXT('part definition',#568,'design');
#564=PRODUCT_DEFINITION('2025-07-26-20-21-03-378','\X2\5E95677F\X0\ M3',
#565,#563);
#565=PRODUCT_DEFINITION_FORMATION('',$,#570);
#566=PRODUCT_RELATED_PRODUCT_CATEGORY('\X2\5E95677F\X0\ M3','\X2\5E95677F\X0\ 
M3',(#570));
#567=APPLICATION_PROTOCOL_DEFINITION('international standard',
'automotive_design',2009,#568);
#568=APPLICATION_CONTEXT(
'Core Data for Automotive Mechanical Design Process');
#569=PRODUCT_CONTEXT('part definition',#568,'mechanical');
#570=PRODUCT('2025-07-26-20-21-03-378','\X2\5E95677F\X0\ M3',$,(#569));
#571=PRESENTATION_STYLE_ASSIGNMENT((#572));
#572=SURFACE_STYLE_USAGE(.BOTH.,#573);
#573=SURFACE_SIDE_STYLE('',(#574));
#574=SURFACE_STYLE_FILL_AREA(#575);
#575=FILL_AREA_STYLE('\X2\94A2\X0\ - \X2\7F0E5149\X0\',(#576));
#576=FILL_AREA_STYLE_COLOUR('\X2\94A2\X0\ - \X2\7F0E5149\X0\',#577);
#577=COLOUR_RGB('\X2\94A2\X0\ - \X2\7F0E5149\X0\',0.627450980392157,0.627450980392157,
0.627450980392157);
ENDSEC;
END-ISO-10303-21;
